<svg width="1207" height="1207" viewBox="0 0 1207 1207" fill="none" xmlns="http://www.w3.org/2000/svg">
<path d="M38.3315 817.446C38.3315 817.446 38.3315 817.446 38.3315 817.446C53.0784 787.114 67.3195 759.007 81.1865 733.077C112.148 674.634 146.427 615.094 183.502 566.765C218.456 519.771 266.387 477.142 300.856 474.722C316.235 474.596 321.657 480.078 335.809 492.417C349.475 505.197 364.517 524.297 380.84 545.689C438.785 621.768 496.61 718.124 583.876 795.135C626.589 832.571 688.545 868.138 751.547 857.565C812.562 847.951 858.94 806.03 894.195 770.352C1007.61 648.198 1079.19 503.171 1150.46 357.194C1163.5 329.683 1176.8 300.779 1190.33 270.419C1175.73 300.281 1161.49 328.718 1147.58 355.771C1072.24 498.895 995.793 643.79 878.966 754.476C843.48 786.781 792.734 816.934 748.643 813.905C704.153 812.005 669.087 779.733 640.916 741.155C583.972 662.314 549.436 562.547 480.203 469.847C459.628 443.341 436.648 418.207 401.5 396.876C369.286 375.498 309.986 364.901 270.566 385.361C193.685 426.606 174.489 486.223 143.475 542.13C115.262 600.027 89.9357 664.409 67.9608 727.314C58.3412 755.285 48.4351 785.267 38.3315 817.446Z" fill="#0850AF"/>
</svg>
