<svg width="181" height="180" viewBox="0 0 181 180" fill="none" xmlns="http://www.w3.org/2000/svg">
<rect width="180" height="180" transform="translate(0.492188)" fill="#080808"/>
<path d="M40.8409 57.4791C46.7196 54.4279 55.563 56.0082 60.3671 59.1963C65.6087 62.3774 69.0358 66.1256 72.1041 70.0784C82.4288 83.9028 87.5792 98.7811 96.0711 110.539C100.272 116.292 105.502 121.104 112.137 121.388C118.712 121.84 126.28 117.343 131.572 112.525C148.994 96.0187 160.394 74.4104 171.63 53.0663C173.705 49.0319 175.829 44.7911 178.006 40.3377C175.988 44.8654 174.005 49.1758 172.059 53.2786C161.432 75.0482 150.757 96.676 133.843 114.893C128.585 120.214 121.669 126.465 112.57 127.899C103.174 129.476 93.9347 124.172 87.5648 118.589C74.5508 107.104 65.9274 92.7346 57.2861 81.3889C54.8519 78.1986 52.6086 75.3503 50.5706 73.4443C48.46 71.6042 47.6514 70.7867 45.358 70.8055C40.2177 71.1664 33.0697 77.5237 27.857 84.532C22.3281 91.7392 17.216 100.618 12.5987 109.334C10.5307 113.201 8.40694 117.392 6.20775 121.916C7.71449 117.117 9.19178 112.646 10.6263 108.475C13.9035 99.0935 17.6805 89.4922 21.8879 80.8581C26.513 72.5207 29.3756 63.63 40.8409 57.4791Z" fill="#0850AF"/>
</svg>
